<svg xmlns="http://www.w3.org/2000/svg" xmlns:xlink="http://www.w3.org/1999/xlink" viewBox="0 0 64 64">
<style type="text/css">
<![CDATA[
	.logo-eden-creative{fill-rule:evenodd;clip-rule:evenodd;fill:#ffffff;}
]]>
</style>
	<g>
		<path class="logo-eden-creative" d="M39,56.8c-2.2,0.8-4.5,1.2-7,1.2c-3,0-5.7-0.6-8.3-1.7s-4.8-2.7-6.8-4.8c-1.9-2-3.4-4.4-4.6-7.1
			c-0.9-2.3-1.5-4.7-1.6-7.2c0-0.5,0-1,0-1.4c0-0.5,0-1,0-1.4c0.1-2.6,0.7-5,1.6-7.2c1.1-2.7,2.6-5.1,4.6-7.1c1.9-2,4.2-3.6,6.8-4.8
			c2.6-1.2,5.4-1.7,8.3-1.7c3,0,5.7,0.6,8.3,1.7c2.6,1.2,4.8,2.7,6.8,4.8c1,1,1.8,2.1,2.6,3.3l-2.4,2.7c-3.7,4.2-7.4,8.4-11.1,12.5
			c5.9-12.2-4.6-17.5-11.6-10.2c-1.3,1.3-2.2,2.9-2.6,4.6c-0.4,1.5-0.6,3.6-0.3,5.2c0.8,4,3.8,7.1,7.6,8.2c1,0.2,1.7,0.4,2.7,0.4
			c1.1,0,2.2-0.2,3.2-0.5c2.8-1,12.4-12.1,20.4-21.8C44-3.1,3.5,5.8,3.5,36c0,5.9,1.8,11.4,4.9,16c-0.1,0.7-0.2,1.5-0.2,2.2
			C4.3,49.2,2,42.9,2,36C2,19.5,15.4,6,32,6c16.3,0,29.5,12.6,30,28.8C57.3,40.2,45.1,54.6,39,56.8z"/>
	</g>
</svg>
